# xmcd
#
# Track frame offsets: 
#        150
#        19215
#        35420
#        49272
#        66862
#        79807
#        91387
#        107664
#        123620
#        139978
#        155254
#        169159
#        185491
#        200869
#        213248
#
# Disc length: 2991 seconds
#
# Revision: 0
# Processed by: cddbd v1.5.2PL0 Copyright (c) Steve Scherf et al.
# Submitted via: ExactAudioCopy v1.0b3
#
DISCID=da0bad0f
DTITLE=Artistes Variés - C'est mon histoire_Hommage à Renée Martel
DYEAR=2015
DGENRE=Country
TTITLE0=Luce Dufault - C'est mon histoire
TTITLE1=Brigitte Boisjoli - Cowgirl dorée
TTITLE2=Valérie Carpentier - Liverpool
TTITLE3=Isabelle Boulay - J'ai un amour qui ne veut pas mourir
TTITLE4=Marie-Hélène Thibert - Si on pouvait recommencer
TTITLE5=Andrea Lindsay - Je vais à Londres
TTITLE6=Laurence Jalbert - Nos yeux d'enfants
TTITLE7=France D'amour - Prends ma main
TTITLE8=Guylaine Tanguay - Darling
TTITLE9=Annie Blanchard - Le bateau du bonheur
TTITLE10=Catherine Durand, Ingrid St-Pierre, Mara Tremblay - Nous on a
TTITLE10=ime la musique country
TTITLE11=France Castel - Je reviens
TTITLE12=Susie Arioli - Viens changer ma vie
TTITLE13=Stéphanie Lapointe - Quand un bateau passe
TTITLE14=Luce Dufault - C'est mon histoire (Reprise)
EXTD=
EXTT0=
EXTT1=
EXTT2=
EXTT3=
EXTT4=
EXTT5=
EXTT6=
EXTT7=
EXTT8=
EXTT9=
EXTT10=
EXTT11=
EXTT12=
EXTT13=
EXTT14=
PLAYORDER=
